<?xml version="1.0" standalone="no"?>
<!DOCTYPE svg PUBLIC "-//W3C//DTD SVG 20010904//EN"
 "http://www.w3.org/TR/2001/REC-SVG-20010904/DTD/svg10.dtd">
<svg version="1.0" xmlns="http://www.w3.org/2000/svg"
 width="1250.000000pt" height="1250.000000pt" viewBox="0 0 1250.000000 1250.000000"
 preserveAspectRatio="xMidYMid meet">

<g transform="translate(0.000000,1250.000000) scale(0.100000,-0.100000)"
fill="#ffffff" stroke="none">
<path d="M3539 10587 c-24 -18 -54 -54 -68 -82 l-26 -49 -3 -412 -3 -412 -187
-4 c-221 -5 -277 -19 -397 -99 -131 -88 -222 -228 -250 -386 -8 -43 -14 -142
-15 -221 l0 -143 -404 2 -405 3 -58 -30 c-35 -18 -70 -46 -90 -72 -30 -39 -33
-50 -33 -112 0 -62 3 -73 33 -112 21 -28 53 -53 92 -73 l60 -30 345 3 c190 2
371 1 403 -3 l57 -7 0 -280 0 -280 -403 3 -403 3 -60 -29 c-38 -20 -70 -45
-91 -73 -30 -39 -33 -50 -33 -112 0 -62 3 -73 33 -112 20 -26 55 -54 91 -73
l59 -30 403 4 404 3 0 -280 0 -280 -222 -7 c-123 -3 -304 -5 -403 -3 -189 3
-214 -1 -278 -45 -16 -11 -42 -38 -58 -60 -25 -35 -29 -49 -29 -107 0 -58 4
-71 30 -108 33 -44 80 -77 132 -93 20 -6 190 -10 431 -9 l397 1 0 -281 0 -280
-182 -2 c-101 -2 -274 -1 -385 0 -233 4 -282 -5 -351 -64 -57 -49 -72 -81 -72
-157 0 -54 4 -69 28 -100 36 -47 71 -74 123 -92 34 -12 114 -15 440 -15 l399
0 0 -280 0 -280 -388 0 c-437 0 -462 -3 -533 -67 -55 -50 -69 -81 -69 -153 0
-70 26 -117 89 -162 67 -47 81 -48 502 -48 l399 0 0 -280 0 -279 -412 -3
c-457 -3 -441 -1 -516 -72 -48 -44 -62 -77 -62 -141 0 -64 14 -97 62 -141 75
-71 59 -69 516 -72 l412 -3 0 -142 c1 -267 43 -392 179 -528 136 -136 263
-179 526 -179 l144 0 3 -412 c3 -404 3 -414 25 -454 12 -23 43 -60 69 -83 46
-40 48 -41 121 -41 72 0 74 1 119 42 92 85 89 66 92 536 l3 412 277 -2 277 -3
5 -410 c5 -401 6 -411 27 -450 28 -49 39 -63 81 -98 30 -24 42 -27 107 -27 72
0 73 0 123 45 36 33 57 62 71 101 20 52 21 76 21 449 l0 395 280 0 280 0 0
-399 c0 -326 3 -406 15 -440 18 -52 45 -87 92 -123 31 -24 46 -28 100 -28 75
0 106 14 156 69 64 71 67 96 67 533 l0 388 280 0 279 0 3 -413 3 -413 26 -49
c14 -28 44 -64 68 -82 38 -30 49 -33 110 -33 79 0 115 19 167 87 48 62 58 127
51 323 -3 90 -3 258 0 372 l6 208 279 0 279 0 -2 -406 -1 -406 28 -56 c18 -34
46 -69 72 -89 39 -29 50 -33 108 -33 77 0 109 14 157 70 60 70 69 126 61 372
-4 117 -3 288 1 380 l7 168 280 0 280 0 -3 -403 -3 -403 29 -60 c20 -38 45
-70 73 -91 39 -30 50 -33 112 -33 62 0 73 3 112 33 28 21 53 53 73 92 l30 60
-3 401 -4 401 174 6 c270 8 373 43 504 172 131 129 174 258 174 521 l0 154
398 0 c459 0 464 1 544 81 l48 48 0 86 0 86 -49 49 c-79 78 -89 80 -543 80
l-388 0 0 280 0 279 413 3 c403 3 413 3 453 25 23 12 58 41 78 64 35 41 36 46
36 120 0 72 -2 80 -33 120 -18 24 -54 54 -82 68 l-49 26 -408 3 -408 3 0 273
c0 241 2 275 16 280 9 3 190 6 402 6 385 0 387 0 438 24 27 13 67 43 87 66 36
42 37 46 37 120 0 69 -3 81 -29 117 -19 26 -50 51 -88 69 l-58 29 -265 0
c-146 0 -327 1 -402 3 l-138 2 0 274 0 274 36 7 c20 3 197 5 393 4 413 -2 418
-1 499 76 l52 51 0 80 c0 70 -3 84 -25 114 -35 48 -96 86 -156 99 -32 7 -132
9 -287 5 -130 -4 -299 -4 -374 1 l-138 7 0 280 0 280 393 -3 c457 -3 456 -3
535 76 l52 52 0 82 0 81 -42 47 c-82 89 -75 88 -535 84 l-403 -3 0 280 0 280
124 7 c68 4 249 5 402 3 321 -4 332 -1 412 85 l42 47 0 80 0 81 -46 49 c-78
84 -83 84 -546 81 l-398 -3 0 172 c0 265 -35 365 -175 505 -138 139 -241 175
-501 175 l-162 0 -7 143 c-4 78 -5 261 -4 407 4 305 1 319 -84 398 l-47 42
-81 0 -82 0 -52 -52 c-79 -79 -79 -78 -76 -535 l3 -393 -280 0 -279 0 -8 240
c-4 132 -4 302 0 378 10 182 -4 234 -79 310 l-53 52 -82 0 -82 0 -52 -52 c-80
-80 -80 -80 -78 -535 l2 -393 -280 0 -281 0 -2 178 c-1 97 -3 278 -3 402 l0
225 -28 57 c-18 36 -43 68 -69 87 -38 28 -49 31 -118 31 -74 0 -78 -1 -120
-37 -23 -20 -53 -60 -66 -87 -24 -51 -24 -52 -24 -453 l0 -403 -280 0 -279 0
-3 408 -3 407 -30 54 c-16 30 -48 67 -69 83 -35 25 -47 28 -118 28 l-79 0 -48
-48 c-80 -80 -81 -85 -81 -539 l0 -393 -280 0 -279 0 -3 408 -3 408 -26 49
c-14 28 -44 64 -68 82 -39 30 -49 33 -116 33 -67 0 -77 -3 -116 -33 -24 -18
-54 -54 -68 -82 l-26 -49 -3 -408 -3 -408 -277 2 -277 3 -5 405 c-5 399 -5
406 -28 452 -13 27 -42 64 -65 83 -39 33 -44 35 -118 35 -72 0 -80 -2 -120
-33z m1801 -2161 l0 -345 -547 -4 c-394 -2 -558 -7 -585 -15 -72 -24 -131 -73
-163 -136 l-30 -60 -3 -493 -3 -493 -279 0 -280 0 0 945 0 945 945 0 945 0 0
-344z m1280 66 c0 -225 -3 -289 -16 -333 -15 -52 -36 -74 -523 -562 l-507
-509 -90 32 c-113 41 -229 50 -324 26 -220 -55 -376 -208 -430 -422 -25 -98
-25 -170 0 -268 42 -164 148 -298 292 -369 128 -63 243 -79 373 -52 203 43
361 188 431 395 30 88 26 243 -9 343 -15 42 -27 87 -27 99 0 15 152 174 513
537 454 457 517 523 545 581 54 109 62 171 62 493 l0 287 485 0 485 0 0 -700
0 -700 -344 0 c-359 0 -409 -4 -507 -44 -123 -50 -169 -86 -415 -331 -332
-330 -335 -335 -344 -655 -6 -192 -9 -219 -27 -255 -30 -56 -418 -440 -465
-459 -31 -14 -184 -16 -1182 -20 l-1146 -5 0 494 0 494 318 3 317 3 58 29 c38
18 69 43 88 69 57 79 59 95 59 613 l0 473 558 3 c549 3 558 3 611 25 71 29
126 84 153 153 21 53 23 71 26 433 l3 377 490 0 489 0 0 -278z m2180 -2397 l0
-2675 -310 0 -310 0 0 478 c0 527 -3 553 -63 666 -22 43 -78 108 -183 217
-101 103 -155 167 -163 191 -12 36 -23 458 -14 534 5 37 8 41 52 57 71 25 160
87 223 155 202 219 196 562 -12 772 -73 74 -168 129 -266 154 -81 21 -234 21
-305 0 -224 -66 -388 -273 -405 -511 -18 -245 127 -468 374 -573 l52 -22 0
-282 c0 -404 5 -417 226 -648 92 -95 151 -165 168 -199 l26 -53 0 -468 0 -468
-2220 0 -2220 0 0 309 0 308 49 7 c27 4 296 6 598 6 479 -1 555 1 603 16 101
30 169 74 279 183 158 154 123 145 571 149 l376 3 13 -38 c38 -109 142 -238
246 -305 211 -137 512 -102 695 81 297 297 182 804 -213 941 -78 27 -215 37
-299 21 -169 -33 -320 -153 -400 -319 l-43 -90 -400 -4 c-432 -5 -430 -5 -545
-63 -32 -16 -98 -69 -159 -129 -69 -66 -127 -111 -166 -131 l-59 -29 -573 -4
-573 -4 0 496 0 496 1160 0 1159 0 76 24 c41 13 96 38 122 54 27 17 150 134
274 259 302 304 308 315 312 634 3 181 5 197 26 239 15 28 108 131 245 268
171 173 233 229 276 250 l55 27 388 2 c441 2 452 3 535 78 30 27 59 66 73 97
l24 53 3 733 3 732 309 0 310 0 0 -2675z m-3402 744 c65 -32 99 -66 135 -133
31 -58 31 -174 -1 -233 -94 -178 -311 -212 -451 -71 -102 104 -105 258 -6 376
41 49 137 92 205 92 43 0 71 -7 118 -31z m2328 -490 c56 -26 112 -84 140 -144
81 -172 -59 -387 -250 -384 -72 1 -109 13 -170 56 -129 91 -150 277 -45 397
88 99 213 128 325 75z m-1128 -1555 c139 -69 201 -239 134 -370 -25 -49 -100
-120 -150 -141 -60 -26 -157 -22 -218 10 -107 55 -173 171 -161 280 12 96 101
206 191 235 62 20 148 14 204 -14z"/>
</g>
</svg>
